<svg width="400" height="344" viewBox="0 0 400 344" xmlns="http://www.w3.org/2000/svg">
<path fill-rule="evenodd" clip-rule="evenodd" d="M148.66 0.866996C141.196 2.057 135.689 3.771 131.192 6.305C130.583 6.648 128.943 7.536 127.547 8.279C125.806 9.20369 124.445 10.4341 122.806 11.479C119.008 13.897 113.128 19.656 93.0709 40.599C44.8659 90.934 38.0469 97.602 34.7819 97.602C28.561 100.08 19.9442 102.662 14.3859 104.298C10.8689 105.333 8.61491 105.927 3.99191 107.035C-0.311087 108.066 -0.292087 108.256 4.62791 113.433C7.11691 116.052 10.5849 119.724 12.3339 121.594C14.0839 123.463 18.9419 128.657 23.1309 133.135C27.3199 137.614 32.1439 142.735 33.8499 144.515C35.5569 146.295 38.4689 149.377 40.3219 151.364L43.6899 154.977L45.2579 152.504C46.6467 150.315 47.6939 147.972 49.0829 145.773C53.6311 138.571 57.4361 132.223 62.4239 124.683C68.2509 115.872 70.7089 112.274 72.4919 109.944C73.1149 109.13 74.1329 107.749 74.7529 106.877C76.3619 104.614 81.4321 97.8347 81.8171 97.4977C81.9941 97.3427 85.0969 93.484 86.0099 92.243C88.191 89.276 90.7607 86.5967 93.1289 83.78C104.974 69.689 123.513 51.344 137.094 40.274C140.714 37.3231 144.357 34.3949 148.096 31.592C151.582 28.9802 154.909 26.3934 158.533 23.979C159.929 23.049 160.604 22.566 161.354 22.004C165.466 18.9222 170.114 16.0123 174.498 13.295L178.897 10.569L178.729 7.706C178.537 4.429 177.746 3.961 169.198 2.069C159.518 -0.0740037 155.896 -0.286004 148.66 0.866996ZM208.181 1.988C208.181 2.275 194.492 84.878 193.878 88.293C193.711 89.224 193.189 92.017 192.717 94.499C192.246 96.982 191.716 99.818 191.54 100.802C191.234 102.519 191.6 102.937 200.562 111.106L209.903 119.621L227.78 119.472L245.657 119.323L251.011 88.152L256.366 56.982L270.496 56.983C295.426 56.986 306.761 59.733 316.699 68.179C335.292 83.98 334.484 119.119 315.214 132.781C302.498 141.796 299.764 142.172 246.971 142.172C200.15 142.172 201.981 142.311 197.419 138.417C194.645 136.049 191.886 134.181 189.367 131.453C188.149 130.134 177.594 120.41 169.862 113.482C167.56 111.42 164.132 108.275 162.246 106.495C155.565 100.189 147.981 94.439 141.081 88.293C139.688 87.052 138.03 85.522 137.398 84.892C134.957 82.463 129.513 77.856 129.083 77.856C128.596 77.856 128.365 78.083 123.272 83.551C121.41 85.55 116.165 91.116 111.616 95.92C107.067 100.724 102.447 105.67 101.349 106.911L99.3539 109.168L103.4 112.835C105.625 114.852 108.266 117.264 109.269 118.195C110.271 119.126 112.944 121.511 115.207 123.496C122.608 129.987 150.635 158.514 150.635 159.557C150.635 160.113 147.906 163.367 144.57 166.789C131.923 179.761 121.282 191.9 108.303 203.748C105.365 206.43 100.551 210.969 97.6039 213.836C94.6569 216.703 90.3409 220.728 88.0129 222.782C85.4141 225.075 82.9296 227.321 80.1129 229.337C78.3379 230.607 76.6894 232.029 74.7529 233.045C73.8219 233.533 72.5529 234.222 71.9319 234.577C70.2809 235.52 65.4229 237.596 63.4699 238.193C62.5389 238.478 56.6119 238.938 50.2989 239.216C39.9669 239.671 32.2109 240.694 29.0549 242.02C22.4139 244.809 16.8509 248.542 14.6289 251.701C13.8949 252.744 13.0039 253.898 12.6479 254.266C9.45191 257.569 5.80691 270.321 5.26491 280.092L4.89091 286.841L6.57891 285.452C7.50691 284.687 9.26191 282.819 10.4799 281.299C11.6979 279.78 12.9479 278.256 13.2579 277.914C13.5679 277.572 14.5729 276.276 15.4909 275.035C22.8913 265.03 30.5713 260.356 43.7239 263.661L55.0179 274.99C61.2289 281.221 68.4649 288.725 71.0969 291.666C73.7279 294.608 76.3889 297.549 77.0099 298.202C77.6299 298.855 80.2959 301.755 82.9339 304.647C85.5709 307.538 88.0469 310.228 88.4339 310.624C89.7879 312.006 89.8339 311.949 75.3549 326.939C69.0619 333.456 63.0879 339.739 62.0809 340.903L60.2499 343.018H63.5519C76.0419 343.016 90.5929 335.91 97.4229 326.477C100.531 322.186 102.836 317.895 104.681 312.835C106.732 307.214 107.146 298.478 105.776 289.737C104.243 279.959 105.475 275.098 110.933 269.394C116.811 263.252 122.118 256.587 128.068 250.478C135.795 242.544 143.16 234.9 150.635 226.715C161.831 214.456 162.888 213.327 170.998 204.984C174.888 200.983 178.686 197.917 183.639 195.487H232.44C290.374 195.487 290.654 195.514 304.245 202.657C332.062 217.274 334.601 261.138 308.629 278.403C296.993 286.139 293.075 286.742 252.694 287.012L219.069 287.236L221.514 272.673C222.858 264.663 224.326 255.825 224.774 253.032C225.222 250.24 226.749 241.354 228.168 233.286C229.586 225.219 230.747 218.3 230.747 217.913C230.747 217.361 226.24 217.207 210.09 217.207H189.433L183.153 223.836C179.699 227.482 175.409 232.013 173.621 233.904L170.37 237.343L168.918 245.47C168.12 249.94 164.099 273.717 159.981 298.307L152.496 343.018L221.664 343.009C261.966 343.004 293.625 342.769 297.525 342.446C350.427 338.063 385.402 311.799 394.146 269.889C403.669 224.24 376.368 178.555 333.709 168.756C331.755 168.307 332.145 168.23 336.623 168.181C350.585 168.028 373.208 154.092 385 138.38C402.12 115.569 404.948 79.992 391.806 52.75C377.776 23.668 346.274 5.701 303.303 2.273C295.976 1.688 208.181 1.426 208.181 1.988Z"/>
</svg>