<svg width="146" height="125" viewBox="0 0 146 125" xmlns="http://www.w3.org/2000/svg">
<path d="M15.7649 56.3877L0 39.316C5.90811 37.5874 11.0251 35.8193 15.1467 33.6596C39.4637 10.7258 45.7491 -5.72896 65.1203 1.88137V4.04105C42.2192 17.8394 32.3082 30.9413 15.7649 56.3877Z" />
<path d="M36.1665 39.7273L47.0886 28.0033L73.2604 51.5542H105.408C113.033 51.5542 120.04 44.0467 120.555 36.025C120.555 26.6663 112.518 20.8043 104.79 20.8043H93.662L89.8496 43.4296H76.8667L69.7571 37.2591L76.1454 0.64724H108.706C124.78 1.05861 146.212 9.69736 145.799 32.734C147.86 46.0007 133.641 61.8384 121.379 61.3242C132.404 63.1753 145.593 75.7221 144.46 91.457C144.46 111.1 129.107 123.955 107.16 124.984H55.6408L62.1322 86.8291L69.1388 79.2187H84.1825L79.9579 104.518H102.523C112.209 103.798 119.319 98.3474 119.319 88.2688C118.906 74.8994 106.542 71.2999 100.978 71.2999H67.9024L63.8839 73.0482L40.185 98.4502C39.3607 99.3758 37.7794 101.97 38.2273 103.798C41.7306 118.093 31.2207 125.395 21.7411 124.984L32.4571 113.465L17.3105 97.6275C14.4254 94.8508 10.819 95.365 8.75827 97.2161L1.75165 104.518C2.10158 97.3654 2.50428 93.2155 7.31573 89.7086C10.4762 87.7789 12.5707 87.2879 21.329 86.8291C24.008 86.6887 26.5839 85.3893 29.0569 83.6409L55.6408 58.1361L36.1665 39.7273Z" />
</svg>
